:FULLY-SPECIFIED
:FORCE-ALL-JOINTS-BE-3DOF
:DEGREES
340
root 8.13452 16.0899 -20.3058 10.7894 22.7697 3.57238
lfemur -6.59586 13.0658 -8.90645
ltibia 39.4726 -0 0
lfoot 10.7149 28.772 0.374475
ltoes -26.8937 0 0
rfemur -49.4137 -16.8554 14.4067
rtibia 55.5879 -0 0
rfoot 1.96532 -15.757 0.202396
rtoes -9.12113 0 0
lowerback -1.43494 -1.81508 -1.44658
upperback 1.61202 -2.37961 0.00276914
thorax 2.51765 -1.2071 0.74276
lowerneck -5.98453 -8.39139 -0.76683
upperneck -1.55799 -11.1967 6.78298
head 0.969297 -5.51377 1.9228
lclavicle -4.48259e-014 7.95139e-015 0
lhumerus -48.4681 -32.9547 109.313
lradius 56.8293 -0 0
lwrist 21.67 0 0
lhand 5.98839 12.1183 -0.0651829
lfingers 7.12502 -0 0
lthumb 31.3172 39.5114 -0.0530765
rclavicle -4.48259e-014 7.95139e-015 0
rhumerus -24.8971 19.4451 -76.5174
rradius 85.3844 -0 0
rwrist 1.31474 0 0
rhand -2.20602 -13.3753 0.0625745
rfingers 7.12502 -0 0
rthumb 23.4699 -41.9201 0.0778338
341
root 8.10855 16.1093 -20.1896 10.7713 21.6614 3.25915
lfemur -6.90399 13.015 -8.74924
ltibia 39.6622 -0 0
lfoot 11.061 29.36 0.161011
ltoes -28.0991 0 0
rfemur -48.9071 -16.4473 14.1126
rtibia 55.3206 -0 0
rfoot 1.48764 -16.3138 0.102057
rtoes -8.4681 0 0
lowerback -1.58629 -1.74132 -1.24627
upperback 1.555 -2.2883 0.102171
thorax 2.53701 -1.16193 0.724346
lowerneck -6.01885 -8.26258 -0.706948
upperneck -1.48361 -11.0307 6.62948
head 0.981793 -5.43157 1.8675
lclavicle -4.48259e-014 7.95139e-015 0
lhumerus -48.391 -32.5565 109.247
lradius 56.7957 -0 0
lwrist 21.6974 0 0
lhand 5.44666 12.0363 -0.0337808
lfingers 7.12502 -0 0
lthumb 30.7985 39.5037 -0.027348
rclavicle -4.48259e-014 7.95139e-015 0
rhumerus -25.2013 18.4557 -77.2003
rradius 85.2159 -0 0
rwrist 1.588 0 0
rhand -2.71552 -13.6454 0.0269318
rfingers 7.12502 -0 0
rthumb 22.9841 -42.2745 0.0342116
342
root 8.08257 16.1287 -20.0733 10.7424 20.5513 2.95088
lfemur -7.30604 13.0249 -8.61042
ltibia 39.9479 0 0
lfoot 11.2668 29.7453 0
ltoes -28.9607 0 0
rfemur -48.3957 -16.0535 13.9352
rtibia 55.0372 0 0
rfoot 0.992131 -16.7125 0
rtoes -7.8301 0 0
lowerback -1.6875 -1.66294 -1.06132
upperback 1.51176 -2.19113 0.189779
thorax 2.54362 -1.11354 0.703334
lowerneck -6.05749 -8.12491 -0.639183
upperneck -1.42004 -10.8528 6.48417
head 0.991996 -5.34355 1.81432
lclavicle -4.48259e-014 7.95139e-015 0
lhumerus -48.2894 -32.1888 109.13
lradius 56.7657 0 0
lwrist 21.7113 0 0
lhand 4.87827 11.9278 0
lfingers 7.12502 0 0
lthumb 30.2539 39.4688 0
rclavicle -4.48259e-014 7.95139e-015 0
rhumerus -25.468 17.623 -77.8089
rradius 84.9958 0 0
rwrist 1.83289 0 0
rhand -3.14231 -13.9058 0
rfingers 7.12502 0 0
rthumb 22.5774 -762.606 0
343
root 8.02327 16.1405 -19.9429 10.7049 19.427 2.6403
lfemur -7.82855 13.1033 -8.49054
ltibia 40.3569 -0 0
lfoot 11.3348 29.9175 -0.106322
ltoes -29.4839 0 0
rfemur -47.8569 -15.6429 13.8672
rtibia 54.7113 -0 0
rfoot 0.449611 -16.9611 -0.107424
rtoes -7.1869 0 0
lowerback -1.73985 -1.58026 -0.883104
upperback 1.48141 -2.08846 0.269679
thorax 2.53708 -1.06211 0.679146
lowerneck -6.10174 -7.976 -0.564856
upperneck -1.36601 -10.6599 6.34177
head 1.0001 -5.24817 1.76175
lclavicle 5.1038e-014 6.16232e-015 0
lhumerus -48.1569 -31.8415 108.958
lradius 56.7418 -0 0
lwrist 21.7119 0 0
lhand 4.26412 11.7898 0.0374503
lfingers 7.12502 -0 0
lthumb 29.665 39.4055 0.0298768
rclavicle 5.1038e-014 6.16232e-015 0
rhumerus -25.7245 16.9111 -78.382
rradius 84.7048 -0 0
rwrist 2.06767 0 0
rhand -3.51069 -14.1599 -0.0208818
rfingers 7.12502 -0 0
rthumb 22.2264 -42.9213 -0.0274203
344
root 7.96397 16.1524 -19.8126 10.6627 18.2773 2.32066
lfemur -8.48854 13.2517 -8.38948
ltibia 40.9059 -0 0
lfoot 11.278 29.8827 -0.161771
ltoes -29.7014 0 0
rfemur -47.2709 -15.1858 13.8934
rtibia 54.3212 -0 0
rfoot -0.164556 -17.0797 -0.223824
rtoes -6.51728 0 0
lowerback -1.74852 -1.49382 -0.702462
upperback 1.46198 -1.98107 0.346515
thorax 2.518 -1.00803 0.651396
lowerneck -6.15236 -7.81433 -0.48582
upperneck -1.31932 -10.4497 6.19667
head 1.00653 -5.14448 1.70822
lclavicle 5.1038e-014 6.16232e-015 0
lhumerus -47.9899 -31.5023 108.732
lradius 56.7259 -0 0
lwrist 21.7005 0 0
lhand 3.58895 11.6219 0.0792987
lfingers 7.12502 -0 0
lthumb 29.0171 39.315 0.0628622
rclavicle 5.1038e-014 6.16232e-015 0
rhumerus -25.9971 16.2722 -78.9599
rradius 84.3288 -0 0
rwrist 2.31202 0 0
rhand -3.85093 -14.411 -0.0394634
rfingers 7.12502 -0 0
rthumb 21.9021 -43.2279 -0.0519662
345
root 7.90468 16.1642 -19.6822 10.6167 17.1045 1.99337
lfemur -9.27665 13.465 -8.30805
ltibia 41.5845 -0 0
lfoot 11.1041 29.6542 -0.169833
ltoes -29.6317 0 0
rfemur -46.6408 -14.6877 14.0095
rtibia 53.8727 -0 0
rfoot -0.844407 -17.0758 -0.346665
rtoes -5.82272 0 0
lowerback -1.71609 -1.40403 -0.519846
upperback 1.45282 -1.86923 0.420267
thorax 2.48712 -0.951449 0.620262
lowerneck -6.20877 -7.64072 -0.402347
upperneck -1.2795 -10.2235 6.04918
head 1.01142 -5.03301 1.65379
lclavicle 5.1038e-014 6.16232e-015 0
lhumerus -47.7914 -31.1707 108.457
lradius 56.7173 -0 0
lwrist 21.6776 0 0
lhand 2.85743 11.426 0.124344
lfingers 7.12502 -0 0
lthumb 28.3148 39.1989 0.0980864
rclavicle 5.1038e-014 6.16232e-015 0
rhumerus -26.2856 15.7023 -79.5417
rradius 83.8733 -0 0
rwrist 2.56499 0 0
rhand -4.16469 -14.659 -0.0557357
rfingers 7.12502 -0 0
rthumb 21.603 -43.5261 -0.0735938
346
root 7.84538 16.176 -19.5518 10.5678 15.9107 1.65973
lfemur -10.1837 13.7378 -8.24737
ltibia 42.3824 -0 0
lfoot 10.8207 29.2449 -0.135103
ltoes -29.2934 0 0
rfemur -45.9697 -14.1544 14.2108
rtibia 53.3721 -0 0
rfoot -1.58401 -16.957 -0.473149
rtoes -5.10469 0 0
lowerback -1.64514 -1.31129 -0.335707
upperback 1.45326 -1.75321 0.490915
thorax 2.44517 -0.892533 0.585923
lowerneck -6.27042 -7.45601 -0.314704
upperneck -1.24605 -9.98249 5.89958
head 1.0149 -4.91435 1.59857
lclavicle 5.1038e-014 6.16232e-015 0
lhumerus -47.5647 -30.846 108.135
lradius 56.7153 -0 0
lwrist 21.6442 0 0
lhand 2.07423 11.204 0.171379
lfingers 7.12502 -0 0
lthumb 27.5626 39.059 0.134664
rclavicle 5.1038e-014 6.16232e-015 0
rhumerus -26.5894 15.1974 -80.1266
rradius 83.344 -0 0
rwrist 2.82564 0 0
rhand -4.45358 -14.9036 -0.069706
rfingers 7.12502 -0 0
rthumb 21.3274 -43.8158 -0.0922879
347
root 7.78608 16.1878 -19.4214 10.5168 14.6979 1.32099
lfemur -11.2006 14.0649 -8.20869
ltibia 43.2894 -0 0
lfoot 10.4346 28.6677 -0.0630338
ltoes -28.7048 0 0
rfemur -45.2603 -13.5916 14.4927
rtibia 52.8253 -0 0
rfoot -2.37743 -16.7307 -0.600329
rtoes -4.36468 0 0
lowerback -1.53827 -1.21597 -0.150499
upperback 1.46266 -1.63328 0.558442
thorax 2.3929 -0.831434 0.548558
lowerneck -6.33676 -7.26101 -0.22316
upperneck -1.21848 -9.72778 5.74819
head 1.0171 -4.78903 1.54265
lclavicle 5.1038e-014 6.16232e-015 0
lhumerus -47.3127 -30.5274 107.773
lradius 56.7192 -0 0
lwrist 21.6009 0 0
lhand 1.24404 10.9579 0.219215
lfingers 7.12502 -0 0
lthumb 26.765 38.8968 0.17171
rclavicle 5.1038e-014 6.16232e-015 0
rhumerus -26.9082 14.7536 -80.7139
rradius 82.7464 -0 0
rwrist 3.09301 0 0
rhand -4.71925 -15.1447 -0.0813976
rfingers 7.12502 -0 0
rthumb 21.0739 -44.0971 -0.10806
348
root 7.72678 16.1997 -19.2911 10.4646 13.4684 0.978328
lfemur -12.3185 14.4405 -8.19331
ltibia 44.295 -0 0
lfoot 9.95265 27.9351 0.040287
ltoes -27.8847 0 0
rfemur -44.5155 -13.0053 14.8502
rtibia 52.2385 -0 0
rfoot -3.21871 -16.4047 -0.725198
rtoes -3.60417 0 0
lowerback -1.39804 -1.11844 0.0353201
upperback 1.48034 -1.50972 0.622825
thorax 2.33104 -0.768308 0.508347
lowerneck -6.40722 -7.05656 -0.127977
upperneck -1.19629 -9.46056 5.59528
head 1.01816 -4.65761 1.48611
lclavicle 5.1038e-014 6.16232e-015 0
lhumerus -47.0384 -30.2143 107.372
lradius 56.7285 -0 0
lwrist 21.5485 0 0
lhand 0.371542 10.6895 0.266694
lfingers 7.12502 -0 0
lthumb 25.9266 38.7143 0.20836
rclavicle 5.1038e-014 6.16232e-015 0
rhumerus -27.2416 14.3669 -81.3026
rradius 82.0862 -0 0
rwrist 3.36615 0 0
rhand -4.96332 -15.382 -0.09085
rfingers 7.12502 -0 0
rthumb 20.8408 -44.3703 -0.120948
349
root 7.66748 16.2115 -19.1607 10.4116 12.2242 0.632881
lfemur -13.5285 14.859 -8.20252
ltibia 45.3889 -0 0
lfoot 9.38157 27.0596 0.168346
ltoes -26.8514 0 0
rfemur -43.7383 -12.4011 15.2786
rtibia 51.6176 -0 0
rfoot -4.10183 -15.9867 -0.844783
rtoes -2.82463 0 0
lowerback -1.22706 -1.01903 0.221287
upperback 1.50564 -1.38277 0.684043
thorax 2.26033 -0.703313 0.46547
lowerneck -6.48125 -6.84348 -0.0294135
upperneck -1.17898 -9.18199 5.44116
head 1.0182 -4.52066 1.42904
lclavicle 5.1038e-014 6.16232e-015 0
lhumerus -46.7447 -29.906 106.937
lradius 56.7424 -0 0
lwrist 21.4878 0 0
lhand -0.538574 10.401 0.312714
lfingers 7.12502 -0 0
lthumb 25.052 38.513 0.243781
rclavicle 5.1038e-014 6.16232e-015 0
rhumerus -27.5889 14.0334 -81.8921
rradius 81.3688 -0 0
rwrist 3.64411 0 0
rhand -5.18743 -15.6154 -0.0981184
rfingers 7.12502 -0 0
rthumb 20.6266 -44.6353 -0.131015
350
root 7.60819 16.2233 -19.0303 10.3585 10.9675 0.285718
lfemur -14.8217 15.3144 -8.23746
ltibia 46.5609 -0 0
lfoot 8.72801 26.0538 0.314396
ltoes -25.6235 0 0
rfemur -42.9315 -11.7847 15.7726
rtibia 50.9689 -0 0
rfoot -5.02071 -15.4845 -0.956226
rtoes -2.02756 0 0
lowerback -1.02791 -0.918079 0.406933
upperback 1.53791 -1.25269 0.742072
thorax 2.18151 -0.636603 0.420108
lowerneck -6.5583 -6.62261 0.0722756
upperneck -1.16601 -8.89326 5.28611
head 1.01737 -4.37871 1.37153
lclavicle 5.1038e-014 6.16232e-015 0
lhumerus -46.4343 -29.6019 106.471
lradius 56.7602 -0 0
lwrist 21.4195 0 0
lhand -1.4816 10.0942 0.35624
lfingers 7.12502 -0 0
lthumb 24.1456 38.2947 0.277189
rclavicle 5.1038e-014 6.16232e-015 0
rhumerus -27.9496 13.7492 -82.4815
rradius 80.6 -0 0
rwrist 3.92594 0 0
rhand -5.3932 -15.8447 -0.103274
rfingers 7.12502 -0 0
rthumb 20.4298 -44.8922 -0.138344
351
root 7.54889 16.2352 -18.8999 10.3058 9.70058 -0.0621329
lfemur -16.1895 15.801 -8.29908
ltibia 47.8007 -0 0
lfoot 7.99871 24.9302 0.471634
ltoes -24.2196 0 0
rfemur -42.0982 -11.1619 16.3272
rtibia 50.2982 -0 0
rfoot -5.96917 -14.9061 -1.05686
rtoes -1.21443 0 0
lowerback -0.803196 -0.815886 0.591777
upperback 1.57647 -1.11976 0.796887
thorax 2.09532 -0.568337 0.372446
lowerneck -6.63783 -6.39479 0.176843
upperneck -1.15688 -8.59552 5.13043
head 1.01581 -4.23234 1.31367
lclavicle 5.1038e-014 6.16232e-015 0
lhumerus -46.11 -29.3013 105.979
lradius 56.7814 -0 0
lwrist 21.3443 0 0
lhand -2.4528 9.77127 0.396322
lfingers 7.12502 -0 0
lthumb 23.212 38.0613 0.30786
rclavicle 5.1038e-014 6.16232e-015 0
rhumerus -28.323 13.5105 -83.0699
rradius 79.7853 -0 0
rwrist 4.21069 0 0
rhand -5.58226 -16.0696 -0.106403
rfingers 7.12502 -0 0
rthumb 20.2488 -45.1412 -0.143043
352
root 7.48959 16.247 -18.7696 10.2538 8.42547 -0.409687
lfemur -17.6229 16.3127 -8.38803
ltibia 49.0978 -0 0
lfoot 7.20062 23.7016 0.633372
ltoes -22.658 0 0
rfemur -41.2415 -10.5379 16.9369
rtibia 49.6118 -0 0
rfoot -6.94094 -14.2596 -1.14428
rtoes -0.386711 0 0
lowerback -0.555513 -0.712733 0.775334
upperback 1.62066 -0.984208 0.84846
thorax 2.00249 -0.498667 0.322666
lowerneck -6.71931 -6.16084 0.284046
upperneck -1.15104 -8.28994 4.97441
head 1.01365 -4.08208 1.25556
lclavicle 5.1038e-014 6.16232e-015 0
lhumerus -45.7744 -29.0037 105.464
lradius 56.8052 -0 0
lwrist 21.2631 0 0
lhand -3.44746 9.43431 0.432104
lfingers 7.12502 -0 0
lthumb 22.2559 37.8146 0.335142
rclavicle 5.1038e-014 6.16232e-015 0
rhumerus -28.7084 13.3135 -83.6563
rradius 78.9302 -0 0
rwrist 4.4974 0 0
rhand -5.75624 -16.2899 -0.107606
rfingers 7.12502 -0 0
rthumb 20.082 -45.3822 -0.14524
